<?xml version="1.0" standalone="no"?>
<!DOCTYPE svg PUBLIC "-//W3C//DTD SVG 20010904//EN"
 "http://www.w3.org/TR/2001/REC-SVG-20010904/DTD/svg10.dtd">
<svg version="1.0" xmlns="http://www.w3.org/2000/svg"
 width="96.000000pt" height="96.000000pt" viewBox="0 0 96.000000 96.000000"
 preserveAspectRatio="xMidYMid meet">
<metadata>
Created by potrace 1.11, written by Peter Selinger 2001-2013
</metadata>
<g transform="translate(0.000000,96.000000) scale(0.100000,-0.100000)"
fill="#000000" stroke="none">
<path d="M435 871 c-45 -20 -70 -60 -70 -112 0 -42 5 -53 33 -81 28 -28 39
-33 82 -33 43 0 54 5 82 33 28 28 33 39 33 82 0 42 -5 54 -31 81 -33 33 -92
46 -129 30z"/>
<path d="M332 588 c-29 -29 -2 -68 47 -68 19 0 17 -5 -16 -47 -44 -59 -66
-108 -58 -134 6 -18 17 -19 175 -19 156 0 169 1 175 19 8 26 -10 67 -56 128
l-39 52 32 3 c38 4 58 30 42 56 -10 15 -31 17 -150 20 -100 2 -143 -1 -152
-10z"/>
<path d="M315 260 c-3 -11 -24 -36 -46 -57 -42 -40 -69 -81 -69 -108 0 -13 34
-15 280 -15 246 0 280 2 280 15 0 28 -28 70 -68 106 -21 19 -42 44 -46 57 -7
22 -10 22 -166 22 -149 0 -159 -1 -165 -20z"/>
</g>
</svg>
